# xmcd CD database file
#
# Track frame offsets:
#	150
#	20509
#	41789
#	58781
#	78430
#	92755
#	117988
#	139327
#	155808
#	168464
#	188798
#	205056
#	228302
#
# Disc length: 3312 seconds
#
# Revision: 0
# Processed by: cddbd v1.5.2PL0 Copyright (c) Steve Scherf et al.
# Submitted via: cdripper 1.0.8
#
DISCID=b40cee0d
DTITLE=James Day And The Fish Fry - Blue Latitudes
DYEAR=1999
DGENRE=Blues
TTITLE0=Lost Highway
TTITLE1=Time and Money
TTITLE2=No Meat Too Tough
TTITLE3=Act Natural
TTITLE4=Money Smarts and Charms
TTITLE5=Weather Blues
TTITLE6=Fish Fry Jump
TTITLE7=Screen Scratching Woman
TTITLE8=Zydeco Boogaloo
TTITLE9=Next New Thing
TTITLE10=Muscadine Wine
TTITLE11=Festival Time
TTITLE12=Blowing Smoke
EXTD=YEAR: 1999
EXTT0=
EXTT1=
EXTT2=
EXTT3=
EXTT4=
EXTT5=
EXTT6=
EXTT7=
EXTT8=
EXTT9=
EXTT10=
EXTT11=
EXTT12=
PLAYORDER=
